<svg width="32" height="32" viewBox="0 0 32 32" xmlns="http://www.w3.org/2000/svg">
  <defs>
    <linearGradient id="grad" x1="0%" y1="0%" x2="100%" y2="100%">
      <stop offset="0%" style="stop-color:#00ff88;stop-opacity:1" />
      <stop offset="100%" style="stop-color:#00d4ff;stop-opacity:1" />
    </linearGradient>
  </defs>
  
  <!-- Background -->
  <rect width="32" height="32" rx="6" fill="#0a0e27"/>
  
  <!-- Chip -->
  <rect x="8" y="8" width="16" height="16" rx="2" fill="#0a0e27" stroke="url(#grad)" stroke-width="1.5"/>
  
  <!-- Pins -->
  <line x1="8" y1="12" x2="5" y2="12" stroke="#00ff88" stroke-width="1"/>
  <line x1="8" y1="16" x2="5" y2="16" stroke="#00ff88" stroke-width="1"/>
  <line x1="8" y1="20" x2="5" y2="20" stroke="#00ff88" stroke-width="1"/>
  
  <line x1="24" y1="12" x2="27" y2="12" stroke="#00ff88" stroke-width="1"/>
  <line x1="24" y1="16" x2="27" y2="16" stroke="#00ff88" stroke-width="1"/>
  <line x1="24" y1="20" x2="27" y2="20" stroke="#00ff88" stroke-width="1"/>
  
  <line x1="12" y1="8" x2="12" y2="5" stroke="#00ff88" stroke-width="1"/>
  <line x1="16" y1="8" x2="16" y2="5" stroke="#00ff88" stroke-width="1"/>
  <line x1="20" y1="8" x2="20" y2="5" stroke="#00ff88" stroke-width="1"/>
  
  <line x1="12" y1="24" x2="12" y2="27" stroke="#00ff88" stroke-width="1"/>
  <line x1="16" y1="24" x2="16" y2="27" stroke="#00ff88" stroke-width="1"/>
  <line x1="20" y1="24" x2="20" y2="27" stroke="#00ff88" stroke-width="1"/>
  
  <!-- Brain pattern -->
  <path d="M 11 13 Q 13 12 15 13 Q 17 12 19 13" stroke="#00d4ff" stroke-width="1" fill="none"/>
  <path d="M 11 16 Q 13 15 15 16 Q 17 15 19 16" stroke="#00d4ff" stroke-width="1" fill="none"/>
  <path d="M 11 19 Q 13 18 15 19 Q 17 18 19 19" stroke="#00d4ff" stroke-width="1" fill="none"/>
  
  <!-- Center dot -->
  <circle cx="16" cy="16" r="1.5" fill="#00ff88"/>
</svg>
